<svg fill="none" xmlns="http://www.w3.org/2000/svg" viewBox="0 0 326 52">
  <g clip-path="url(#a)" fill="#666666">
    <path d="M115.169 47.154c.312.61-.128.922-.585 1.22a9.702 9.702 0 0 1-2.85 1.243c-.777.2-1.538.433-2.331.61-1.201.273-2.41.505-3.683.61-.753.056-1.489.2-2.234.28-1.033.113-2.098.145-3.115.313-1.545.249-3.123.153-4.668.297-1.802.169-3.603.193-5.413.209-.56 0-1.129.064-1.69.064-4.051 0-8.103.008-12.154 0-1.466 0-2.931-.04-4.397-.072-.984-.016-1.977-.032-2.962-.072-1.834-.089-3.668-.193-5.501-.29h-.056l-3.556-.144c-1.297-.048-2.61-.016-3.875-.168-1.85-.217-3.707-.177-5.557-.281-1.393-.072-2.779-.193-4.172-.289h-.112l-4.965-.216c-.616-.025-1.249 0-1.857-.08-2.042-.25-4.124-.145-6.158-.314a70.323 70.323 0 0 0-4.86-.2c-.64 0-1.273-.04-1.914-.073l-4.252-.216H10.706c-1.434 0-2.859.016-4.292.08-1.065.048-2.122.169-3.179.273-1.073.104-2.138.217-3.227.249.969-.129 1.93-.257 2.899-.377.856-.105 1.705-.209 2.562-.297.993-.105 1.986-.209 2.979-.29 1.257-.103 2.522-.192 3.787-.288.817-.056 1.626-.12 2.442-.152 1.53-.065 3.083-.025 4.597-.169 1.617-.16 3.235-.184 4.86-.2 1.04-.008 2.098.015 3.123-.08 2.458-.225 4.932-.193 7.399-.21 1.449-.007 2.922.057 4.34-.096 1.897-.208 3.77-.056 5.66-.12 1.394-.04 2.787-.064 4.18-.072 4.172-.032 8.36.056 12.524-.112 3.611-.145 7.222-.177 10.81-.08 3.795.104 7.575.063 11.362.112 1.946.024 3.891.056 5.837.072 4.877.032 9.753.056 14.621.072 1.41 0 2.827-.04 4.236-.072.585-.016 1.169-.032 1.746-.072 1.081-.089 2.154-.177 3.227-.297.672-.073 1.329-.193 1.97-.281v-.024ZM37.49 6.026c-.865 1.396-1.69 2.728-2.506 4.06-.593.97-1.17 1.95-1.77 2.92-.56.907-1.113 1.813-1.705 2.704-.577.85-1.13 1.725-1.834 2.503-.553.61-1.265 1.131-2.194 1.372-.865.225-1.73.45-2.546.77-.64.25-1.305.466-1.834.947-.769.706-1.697 1.276-2.482 1.966-.665.586-1.201 1.268-1.826 1.893a52.146 52.146 0 0 1-1.817 1.694c-.057.048-.209.015-.497.032.16-.506.28-.955.44-1.396.193-.538.369-1.084.633-1.597.44-.843.88-1.693 1.433-2.48a22.912 22.912 0 0 1 2.082-2.527c.465-.481 1.081-.882 1.682-1.252.528-.32 1.129-.561 1.697-.826.4-.192.793-.401 1.225-.538.857-.28 1.282-.858 1.618-1.54.328-.674.744-1.308 1.105-1.974.336-.626.632-1.275.977-1.901.664-1.22 1.353-2.431 2.026-3.651.184-.329.312-.682.52-1.003.865-1.348 1.722-2.704 2.65-4.02.409-.57.921-1.115 1.498-1.572a2.857 2.857 0 0 1 2.778-.434c.593.225 1.121.723 1.482 1.204.56.738.96 1.557 1.409 2.35.552.988 1.113 1.975 1.617 2.986.393.77.705 1.572 1.05 2.359l1.393 3.177c.256.57.528 1.14.776 1.717.337.786.649 1.588.985 2.375.28.65.593 1.284.865 1.933.456 1.092.889 2.199 1.337 3.298.248.61.497 1.22.769 1.813.384.843.8 1.677 1.169 2.528.192.425.312.874.48 1.308.32.81.657 1.612 1.033 2.543.48-.361.905-.658 1.29-.987.792-.674 1.489-1.452 2.37-2.038 1.53-1.01 2.762-2.279 4.171-3.386a51.624 51.624 0 0 1 2.49-1.87c.93-.641 1.907-1.235 2.883-1.82.633-.378 1.666-.281 2.354.12.577.337 1.218.602 1.77.963.705.457 1.361.962 2.034 1.46.424.305.825.634 1.25.939.576.417 1.176.818 1.753 1.235.688.49 1.377.98 2.042 1.493.696.53 1.36 1.099 2.065 1.628.625.466 1.29.891 1.914 1.356.657.49 1.281 1.011 1.93 1.509.809.618 1.641 1.22 2.45 1.845.713.546 1.385 1.132 2.098 1.677.6.45 1.241.859 1.85 1.308.696.513 1.369 1.059 2.058 1.589.624.473 1.265.922 1.89 1.396.352.264.688.545 1.04.81.825.634 1.658 1.252 2.483 1.886.8.61 1.593 1.235 2.378 1.853.096.072.136.2.112.377-.337-.209-.689-.401-1.01-.626-.616-.425-1.216-.866-1.817-1.3-1.009-.73-2.01-1.484-3.035-2.198-.792-.554-1.633-1.051-2.418-1.605-.544-.385-1.017-.842-1.553-1.243-.449-.337-.961-.618-1.425-.94-.681-.473-1.322-.986-2.01-1.451-.961-.658-1.962-1.276-2.923-1.934-.632-.433-1.217-.923-1.85-1.348-.808-.546-1.65-1.06-2.466-1.597-.857-.561-1.69-1.155-2.554-1.709-.745-.473-1.538-.906-2.282-1.38-.689-.433-1.338-.922-2.026-1.356a49.88 49.88 0 0 0-1.906-1.139c-.849-.481-1.69-.97-2.562-1.42-.176-.088-.553-.096-.689 0-1.185.874-2.418 1.709-3.459 2.696-.617.585-1.265 1.147-1.89 1.717-.84.762-1.665 1.532-2.474 2.31-.52.506-.993 1.052-1.513 1.557-.505.49-1.041.947-1.562 1.42-.68.618-1.32 1.268-2.042 1.862-.344.288-.8.481-1.233.682-.248.112-.64.289-.792.208-.537-.273-1.137-.577-1.45-1.01-.568-.795-.96-1.686-1.401-2.544-.432-.843-.84-1.701-1.257-2.552-.465-.946-.913-1.901-1.385-2.848-.369-.738-.785-1.46-1.145-2.198-.209-.426-.345-.875-.553-1.292-.352-.706-.753-1.404-1.12-2.11-.177-.353-.305-.722-.473-1.075-.449-.987-.905-1.966-1.362-2.945-.416-.883-.856-1.757-1.273-2.64-.232-.497-.432-1.003-.664-1.492-.353-.738-.737-1.468-1.09-2.215-.224-.465-.392-.954-.624-1.412-.32-.626-.68-1.243-1.073-1.95l-.032-.007ZM117.995 7.526c-.713-.955-1.585-1.677-2.634-2.15a7.687 7.687 0 0 0-3.267-.714c-1.313 0-2.515.264-3.62.802a9.195 9.195 0 0 0-2.85 2.15 9.801 9.801 0 0 0-1.866 3.137 10.496 10.496 0 0 0-.664 3.723c0 1.38.224 2.664.664 3.86.441 1.187 1.057 2.222 1.85 3.105a8.568 8.568 0 0 0 2.834 2.086c1.097.513 2.315.77 3.652.77 1.441 0 2.73-.28 3.867-.85s2.122-1.389 2.963-2.456l2.098 1.773c-1.065 1.429-2.346 2.472-3.852 3.138-1.497.666-3.195 1.003-5.084 1.003-1.69 0-3.267-.313-4.733-.94a11.678 11.678 0 0 1-3.819-2.59c-1.081-1.108-1.922-2.408-2.53-3.924-.609-1.517-.913-3.17-.913-4.975 0-1.805.296-3.362.881-4.878a11.755 11.755 0 0 1 2.482-3.94c1.065-1.115 2.33-1.99 3.795-2.64 1.466-.641 3.075-.97 4.829-.97 1.601 0 3.139.289 4.612.866 1.473.578 2.714 1.525 3.715 2.84l-2.434 1.774h.024ZM132.592 2.648h2.635l10.033 23.637h-3.267l-2.402-5.809h-11.795l-2.434 5.809h-3.163l10.393-23.637Zm1.266 3.61h-.065l-4.9 11.619h9.633l-4.668-11.618ZM148.383 2.648h2.802v23.637h-2.802V2.648ZM157.047 2.648h2.802v21.037h10.794v2.608h-13.596V2.648ZM173.71 2.648h2.802v21.037h10.794v2.608H173.71V2.648ZM190.373 2.648h14.829v2.608h-12.027v7.413h11.227v2.608h-11.227v8.417h12.628V26.3h-15.43V2.648ZM219.399 2.648h7.199c.977 0 1.929.096 2.866.305.937.2 1.77.53 2.499.987a5.443 5.443 0 0 1 1.785 1.789c.457.738.681 1.645.681 2.736 0 1.38-.369 2.52-1.113 3.426-.745.899-1.746 1.54-3.019 1.918v.064a5.922 5.922 0 0 1 2.114.586c.657.32 1.225.738 1.698 1.251a5.5 5.5 0 0 1 1.113 1.79c.264.681.4 1.404.4 2.19 0 1.316-.272 2.39-.817 3.241a6.12 6.12 0 0 1-2.13 2.022c-.873.506-1.865.85-2.962 1.051-1.097.2-2.194.305-3.283.305h-7.031V2.648Zm2.795 10.021h3.867c.665 0 1.313-.048 1.946-.136a4.95 4.95 0 0 0 1.714-.554 3.27 3.27 0 0 0 1.233-1.171c.312-.498.464-1.164.464-1.99 0-.738-.144-1.332-.432-1.79a3.128 3.128 0 0 0-1.153-1.082 5.17 5.17 0 0 0-1.634-.554 11.816 11.816 0 0 0-1.85-.152h-4.163v7.413l.008.016Zm0 11.016h4.732c.689 0 1.369-.072 2.05-.216a6.063 6.063 0 0 0 1.834-.698 3.837 3.837 0 0 0 1.313-1.268c.328-.521.496-1.163.496-1.918 0-.826-.16-1.516-.48-2.07a3.913 3.913 0 0 0-1.265-1.34 4.975 4.975 0 0 0-1.802-.698 10.53 10.53 0 0 0-2.082-.2h-4.796v8.417-.009ZM240.394 2.648h2.803v21.037h10.794v2.608h-13.597V2.648ZM264.72 2.648h2.635l10.033 23.637h-3.267l-2.402-5.809h-11.795l-2.434 5.809h-3.163l10.401-23.637h-.008Zm1.265 3.61h-.064l-4.9 11.619h9.633l-4.669-11.618ZM280.511 2.648h3.531l13.66 19.633h.064V2.648h2.803v23.637h-3.531L283.377 6.652h-.064v19.633h-2.802V2.648ZM322.965 7.526c-.712-.955-1.585-1.677-2.634-2.15a7.687 7.687 0 0 0-3.267-.714c-1.313 0-2.514.264-3.619.802a9.107 9.107 0 0 0-2.851 2.15 9.801 9.801 0 0 0-1.866 3.137 10.676 10.676 0 0 0-.664 3.723c0 1.38.224 2.664.664 3.86.441 1.187 1.057 2.222 1.85 3.105a8.572 8.572 0 0 0 2.835 2.086c1.097.513 2.314.77 3.651.77 1.441 0 2.73-.28 3.867-.85 1.138-.57 2.122-1.389 2.963-2.456l2.098 1.773c-1.065 1.429-2.346 2.472-3.851 3.138-1.498.666-3.195 1.003-5.085 1.003-1.69 0-3.267-.313-4.732-.94-1.466-.625-2.739-1.483-3.812-2.59a11.972 11.972 0 0 1-2.53-3.924c-.609-1.517-.913-3.17-.913-4.975 0-1.805.296-3.362.881-4.878a11.755 11.755 0 0 1 2.482-3.94c1.065-1.115 2.33-1.99 3.804-2.64 1.473-.65 3.074-.97 4.828-.97 1.601 0 3.139.289 4.612.866 1.482.578 2.715 1.525 3.716 2.84l-2.435 1.774h.008ZM144.467 35.96h1.634l3.755 10.046h.032l3.876-10.045h1.529l-4.772 12.22h-1.394l-4.668-12.22h.008ZM157.951 35.96h1.45v12.22h-1.45V35.96ZM163.725 35.96h1.449v10.873h5.581v1.348h-7.03V35.96ZM173.63 35.96h1.449v10.873h5.581v1.348h-7.03V35.96ZM187.49 35.96h1.362l5.188 12.22h-1.689l-1.241-3h-6.102l-1.257 3h-1.634l5.373-12.22Zm.657 1.862h-.032l-2.53 6.01h4.98l-2.41-6.01h-.008ZM202.752 42.38h3.924v-3.932h1.137v3.932h3.923v1.14h-3.923v3.93h-1.137v-3.93h-3.924v-1.14ZM221.874 35.96h1.449v5.176h6.51v-5.175h1.449v12.22h-1.449v-5.697h-6.51v5.697h-1.449V35.96ZM241.267 48.486c-.929 0-1.786-.16-2.554-.481a6.12 6.12 0 0 1-2.018-1.34 6.095 6.095 0 0 1-1.329-2.038 6.88 6.88 0 0 1-.473-2.56c0-.914.16-1.773.473-2.56a5.975 5.975 0 0 1 1.329-2.037 6.12 6.12 0 0 1 2.018-1.34c.776-.321 1.625-.482 2.554-.482.929 0 1.786.16 2.554.482a6.12 6.12 0 0 1 2.018 1.34 6.095 6.095 0 0 1 1.329 2.038 6.88 6.88 0 0 1 .473 2.56 6.88 6.88 0 0 1-.473 2.559 5.975 5.975 0 0 1-1.329 2.038 6.12 6.12 0 0 1-2.018 1.34c-.776.32-1.625.481-2.554.481Zm0-1.34c.713 0 1.361-.128 1.954-.393a4.525 4.525 0 0 0 1.521-1.091c.425-.458.753-.995.993-1.613a5.57 5.57 0 0 0 .352-1.974c0-.698-.12-1.364-.352-1.974a4.858 4.858 0 0 0-.993-1.612 4.723 4.723 0 0 0-1.521-1.091 4.729 4.729 0 0 0-1.954-.402c-.713 0-1.361.137-1.954.402a4.525 4.525 0 0 0-1.521 1.09 5.096 5.096 0 0 0-.993 1.614 5.57 5.57 0 0 0-.352 1.973c0 .698.12 1.364.352 1.974.232.618.569 1.155.993 1.613.424.457.937.826 1.521 1.09.593.266 1.241.394 1.954.394ZM259.436 37.309h-4.028V48.18h-1.449V37.309h-4.028V35.96h9.505v1.348ZM262.43 35.96h7.663v1.349h-6.221v3.835h5.805v1.348h-5.805v4.349h6.526v1.348h-7.976v-12.22l.008-.008ZM273.937 35.96h1.449v10.873h5.581v1.348h-7.03V35.96Z"/>
  </g>
  <defs>
    <clipPath id="a">
      <path fill="#fff" d="M0 0h326v52H0z"/>
    </clipPath>
  </defs>
</svg>